This is my first time uploading anything to TPB, but ive been using it for a while to download so thought it was time i gave something back.

I couldnt find a decent copy of this so i have converted a HD copy i downloaded into SD avi for those who want it. 

The file info is below, so please leave comments and let me know what you think.



Video  ID : 0 
Format : MPEG-4 Visual 
Format settings, BVOP : Yes 
Format settings, QPel : No 
Format settings, GMC : No warppoints 
Format settings, Matrix : Default (H.263) 
Muxing mode : Packed bitstream 
Codec ID : DX50 
Codec ID/Hint : DivX 5 
Duration : 2h 24mn 
Bit rate : 1 211 Kbps 
Width : 720 pixels 
Height : 304 pixels 
Display aspect ratio : 2.35:1 
Frame rate : 23.976 fps 
Resolution : 8 bits 
Colorimetry : 4:2:0 
Scan type : Progressive 
Bits/(Pixel*Frame) : 0.231 
Stream size : 1.23 GiB (88%) 
Writing library : DivX 6.7.0 (UTC 2007-09-20) 

Audio  ID : 1 
Format : MPEG Audio 
Format version : Version 1 
Format profile : Layer 3 
Codec ID : 55 
Codec ID/Hint : MP3 
Duration : 2h 24mn 
Bit rate mode : Constant 
Bit rate : 160 Kbps 
Channel(s) : 2 channels 
Sampling rate : 48.0 KHz 
Stream size : 166 MiB (12%) 
Alignment : Split accross interleaves 
Interleave, duration : 42 ms (1.00 video frame) 
Interleave, preload duration : 500 ms 
